<svg width="126" height="132" viewBox="0 0 126 132" fill="none" xmlns="http://www.w3.org/2000/svg">
<rect width="126" height="132"/>
<path d="M122.073 0H3.91273C1.75186 0 0 1.75186 0 3.91273V128.087C0 130.248 1.75186 132 3.91273 132H122.073C124.234 132 125.986 130.248 125.986 128.087V3.91273C125.986 1.75186 124.234 0 122.073 0V0ZM118.16 7.82545V20.8681H72.9992C69.021 20.8681 65.1237 22.236 62.0287 24.7164L56.9821 28.7507C54.9263 30.3961 52.3439 31.3021 49.7104 31.3021H7.82545V7.82545H118.16ZM7.82545 124.175V39.1275H49.7104C54.1146 39.1275 58.4337 37.612 61.8701 34.8616L66.9188 30.8255C68.6342 29.4506 70.7935 28.6933 72.999 28.6933H118.16V124.174H7.82545V124.175Z" fill="#003865"/>
<path d="M19.5634 23.4761C21.7243 23.4761 23.4761 21.7243 23.4761 19.5634C23.4761 17.4024 21.7243 15.6506 19.5634 15.6506C17.4024 15.6506 15.6506 17.4024 15.6506 19.5634C15.6506 21.7243 17.4024 23.4761 19.5634 23.4761Z" fill="#003865"/>
<path d="M35.2145 23.4761C37.3754 23.4761 39.1272 21.7243 39.1272 19.5634C39.1272 17.4024 37.3754 15.6506 35.2145 15.6506C33.0535 15.6506 31.3018 17.4024 31.3018 19.5634C31.3018 21.7243 33.0535 23.4761 35.2145 23.4761Z" fill="#003865"/>
<path d="M50.8651 23.4761C53.0261 23.4761 54.7778 21.7243 54.7778 19.5634C54.7778 17.4024 53.0261 15.6506 50.8651 15.6506C48.7042 15.6506 46.9524 17.4024 46.9524 19.5634C46.9524 21.7243 48.7042 23.4761 50.8651 23.4761Z" fill="#003865"/>
<path fill-rule="evenodd" clip-rule="evenodd" d="M94.4894 48.9943H31.4966C29.5638 48.9943 27.997 50.5611 27.997 52.4939C27.997 54.4267 29.5638 55.9935 31.4966 55.9935H94.4894C96.4222 55.9935 97.989 54.4267 97.989 52.4939C97.989 50.5611 96.4222 48.9943 94.4894 48.9943ZM31.4966 41.9951C25.6983 41.9951 20.9978 46.6956 20.9978 52.4939C20.9978 58.2922 25.6983 62.9927 31.4966 62.9927H94.4894C100.288 62.9927 104.988 58.2922 104.988 52.4939C104.988 46.6956 100.288 41.9951 94.4894 41.9951H31.4966Z" fill="#003865"/>
<path fill-rule="evenodd" clip-rule="evenodd" d="M94.4894 76.9911H31.4966C29.5638 76.9911 27.997 78.558 27.997 80.4907C27.997 82.4235 29.5638 83.9903 31.4966 83.9903H94.4894C96.4222 83.9903 97.989 82.4235 97.989 80.4907C97.989 78.558 96.4222 76.9911 94.4894 76.9911ZM31.4966 69.9919C25.6983 69.9919 20.9978 74.6924 20.9978 80.4907C20.9978 86.2891 25.6983 90.9895 31.4966 90.9895H94.4894C100.288 90.9895 104.988 86.2891 104.988 80.4907C104.988 74.6924 100.288 69.9919 94.4894 69.9919H31.4966Z" fill="#003865"/>
<path fill-rule="evenodd" clip-rule="evenodd" d="M94.4894 104.988H31.4966C29.5638 104.988 27.997 106.555 27.997 108.488C27.997 110.42 29.5638 111.987 31.4966 111.987H94.4894C96.4222 111.987 97.989 110.42 97.989 108.488C97.989 106.555 96.4222 104.988 94.4894 104.988ZM31.4966 97.9888C25.6983 97.9888 20.9978 102.689 20.9978 108.488C20.9978 114.286 25.6983 118.986 31.4966 118.986H94.4894C100.288 118.986 104.988 114.286 104.988 108.488C104.988 102.689 100.288 97.9888 94.4894 97.9888H31.4966Z" fill="#003865"/>
</svg>
