<svg width="126" height="132" viewBox="0 0 126 132" fill="none" xmlns="http://www.w3.org/2000/svg">
<rect width="126" height="132"/>
<path d="M122.073 0H3.91273C1.75186 0 0 1.75186 0 3.91273V128.087C0 130.248 1.75186 132 3.91273 132H122.073C124.234 132 125.986 130.248 125.986 128.087V3.91273C125.986 1.75186 124.234 0 122.073 0V0ZM118.16 7.82545V20.8681H72.9992C69.021 20.8681 65.1237 22.236 62.0287 24.7164L56.9821 28.7507C54.9263 30.3961 52.3439 31.3021 49.7104 31.3021H7.82545V7.82545H118.16ZM7.82545 124.175V39.1275H49.7104C54.1146 39.1275 58.4337 37.612 61.8701 34.8616L66.9188 30.8255C68.6342 29.4506 70.7935 28.6933 72.999 28.6933H118.16V124.174H7.82545V124.175Z" fill="#003865"/>
<path d="M44.4665 99.9252L44.4631 91.6563L56.8693 91.6563C58.8872 91.6563 60.5232 89.9044 60.5232 87.7436L60.5232 72.0927C60.5232 69.9318 58.8872 68.1799 56.8693 68.1799L44.4618 68.1799L44.4618 59.911C44.4618 56.6298 40.9005 54.8044 38.5138 56.8656L15.3574 76.8678C13.5451 78.4331 13.5444 81.3919 15.3572 82.9583L38.5179 102.971C40.9032 105.031 44.4665 103.209 44.4665 99.9252ZM23.4708 79.9134L37.154 68.0941L37.154 72.0924C37.154 74.2533 38.79 76.0051 40.8079 76.0051L53.2154 76.0051L53.2154 83.8306L40.8079 83.8306C38.7919 83.8306 37.154 85.5819 37.154 87.7433L37.1557 91.7377L23.4708 79.9134Z" fill="#003865"/>
<path d="M82.3459 59.9117L82.3493 68.1806L69.9425 68.1806C67.9246 68.1806 66.2886 69.9325 66.2886 72.0933L66.2886 87.7443C66.2886 89.9051 67.9246 91.657 69.9425 91.657L82.3505 91.657L82.3505 99.9259C82.3505 103.207 85.9119 105.033 88.2986 102.971L111.455 82.9692C113.267 81.4038 113.268 78.445 111.455 76.8786L88.2945 56.8663C85.9092 54.8061 82.3459 56.6282 82.3459 59.9117ZM103.342 79.9235L89.6584 91.7428L89.6584 87.7445C89.6584 85.5836 88.0224 83.8318 86.0044 83.8318L73.5964 83.8318L73.5964 76.0063L86.0044 76.0063C88.0204 76.0063 89.6584 74.255 89.6584 72.0936L89.6566 68.0992L103.342 79.9235Z" fill="#003865"/>
<path d="M19.5634 23.4761C21.7243 23.4761 23.4761 21.7243 23.4761 19.5634C23.4761 17.4024 21.7243 15.6506 19.5634 15.6506C17.4024 15.6506 15.6506 17.4024 15.6506 19.5634C15.6506 21.7243 17.4024 23.4761 19.5634 23.4761Z" fill="#003865"/>
<path d="M35.2162 23.4761C37.3771 23.4761 39.1289 21.7243 39.1289 19.5634C39.1289 17.4024 37.3771 15.6506 35.2162 15.6506C33.0553 15.6506 31.3035 17.4024 31.3035 19.5634C31.3035 21.7243 33.0553 23.4761 35.2162 23.4761Z" fill="#003865"/>
<path d="M50.8651 23.4761C53.0261 23.4761 54.7778 21.7243 54.7778 19.5634C54.7778 17.4024 53.0261 15.6506 50.8651 15.6506C48.7042 15.6506 46.9524 17.4024 46.9524 19.5634C46.9524 21.7243 48.7042 23.4761 50.8651 23.4761Z" fill="#003865"/>
</svg>
