<svg width="126" height="132" viewBox="0 0 126 132" fill="none" xmlns="http://www.w3.org/2000/svg">
<rect width="126" height="132"/>
<path d="M105.932 83.7695C105.931 83.7695 105.93 83.7695 105.93 83.7695L97.6626 83.7731V50.9127C97.6626 48.7519 95.9108 47 93.7499 47H78.099C75.9381 47 74.1863 48.7519 74.1863 50.9127V83.7744H65.9174C62.6362 83.7744 60.8108 87.588 62.872 90.1438L82.8741 114.94C84.4395 116.881 87.3983 116.882 88.9646 114.941L108.977 90.1394C111.037 87.5851 109.215 83.7695 105.932 83.7695ZM85.9198 106.252L74.1005 91.5999H78.0987C80.2596 91.5999 82.0115 89.848 82.0115 87.6871V54.8255H89.8369V87.6871C89.8369 89.8459 91.5883 91.5999 93.7497 91.5999H93.7512L97.744 91.598L85.9198 106.252Z" fill="#003865"/>
<path d="M42.9751 48.4084C41.3018 46.5052 38.3151 46.5253 36.8846 48.4081L16.8723 73.2093C14.8116 75.7636 16.6336 79.5793 19.9174 79.5793L28.1863 79.5756V112.436C28.1863 114.597 29.9382 116.349 32.099 116.349H47.75C49.9108 116.349 51.6627 114.597 51.6627 112.436V79.5743H59.9316C63.2128 79.5743 65.0382 75.7607 62.977 73.2049L42.9751 48.4084Z" fill="#003865"/>
<path d="M122.073 0H3.91273C1.75186 0 0 1.75186 0 3.91273V128.087C0 130.248 1.75186 132 3.91273 132H122.073C124.234 132 125.986 130.248 125.986 128.087V3.91273C125.986 1.75186 124.234 0 122.073 0V0ZM118.16 7.82545V20.8681H72.9992C69.021 20.8681 65.1237 22.236 62.0287 24.7164L56.9821 28.7507C54.9263 30.3961 52.3439 31.3021 49.7104 31.3021H7.82545V7.82545H118.16ZM7.82545 124.175V39.1275H49.7104C54.1146 39.1275 58.4337 37.612 61.8701 34.8616L66.9188 30.8255C68.6342 29.4506 70.7935 28.6933 72.999 28.6933H118.16V124.174H7.82545V124.175Z" fill="#003865"/>
<path d="M19.5634 23.4761C21.7243 23.4761 23.4761 21.7243 23.4761 19.5634C23.4761 17.4024 21.7243 15.6506 19.5634 15.6506C17.4024 15.6506 15.6506 17.4024 15.6506 19.5634C15.6506 21.7243 17.4024 23.4761 19.5634 23.4761Z" fill="#003865"/>
<path d="M35.2145 23.4761C37.3754 23.4761 39.1272 21.7243 39.1272 19.5634C39.1272 17.4024 37.3754 15.6506 35.2145 15.6506C33.0535 15.6506 31.3018 17.4024 31.3018 19.5634C31.3018 21.7243 33.0535 23.4761 35.2145 23.4761Z" fill="#003865"/>
<path d="M50.8651 23.4761C53.0261 23.4761 54.7778 21.7243 54.7778 19.5634C54.7778 17.4024 53.0261 15.6506 50.8651 15.6506C48.7042 15.6506 46.9524 17.4024 46.9524 19.5634C46.9524 21.7243 48.7042 23.4761 50.8651 23.4761Z" fill="#003865"/>
</svg>
