<svg width="126" height="132" viewBox="0 0 126 132" fill="none" xmlns="http://www.w3.org/2000/svg">
<rect width="126" height="132"/>
<path d="M17.9173 79.5787C17.9179 79.5787 17.9186 79.5787 17.9189 79.5787L26.1862 79.575L26.1862 112.435C26.1862 114.596 27.9381 116.348 30.099 116.348L45.7499 116.348C47.9107 116.348 49.6626 114.596 49.6626 112.435L49.6626 79.5737L57.9315 79.5737C61.2127 79.5737 63.0381 75.7601 60.9769 73.2043L40.9748 48.4078C39.4094 46.4671 36.4506 46.4663 34.8842 48.4076L14.8719 73.2088C12.8118 75.763 14.6338 79.5787 17.9173 79.5787ZM37.9291 57.0959L49.7484 71.7483L45.7501 71.7483C43.5893 71.7483 41.8374 73.5001 41.8374 75.661L41.8374 108.523L34.012 108.523L34.012 75.661C34.012 73.5022 32.2606 71.7483 30.0992 71.7483L30.0977 71.7483L26.1049 71.7501L37.9291 57.0959Z" fill="#003865"/>
<path d="M83.8738 114.94C85.5471 116.843 88.5338 116.823 89.9643 114.94L109.977 90.1393C112.037 87.5851 110.215 83.7694 106.931 83.7694L98.6626 83.773L98.6626 50.9126C98.6626 48.7518 96.9107 46.9999 94.7498 46.9999L79.0989 46.9999C76.9381 46.9999 75.1862 48.7518 75.1862 50.9126L75.1862 83.7743L66.9173 83.7743C63.6361 83.7743 61.8107 87.5879 63.8719 90.1437L83.8738 114.94Z" fill="#003865"/>
<path d="M122.073 0H3.91273C1.75186 0 0 1.75186 0 3.91273V128.087C0 130.248 1.75186 132 3.91273 132H122.073C124.234 132 125.986 130.248 125.986 128.087V3.91273C125.986 1.75186 124.234 0 122.073 0V0ZM118.16 7.82545V20.8681H72.9992C69.021 20.8681 65.1237 22.236 62.0287 24.7164L56.9821 28.7507C54.9263 30.3961 52.3439 31.3021 49.7104 31.3021H7.82545V7.82545H118.16ZM7.82545 124.175V39.1275H49.7104C54.1146 39.1275 58.4337 37.612 61.8701 34.8616L66.9188 30.8255C68.6342 29.4506 70.7935 28.6933 72.999 28.6933H118.16V124.174H7.82545V124.175Z" fill="#003865"/>
<path d="M19.5634 23.4761C21.7243 23.4761 23.4761 21.7243 23.4761 19.5634C23.4761 17.4024 21.7243 15.6506 19.5634 15.6506C17.4024 15.6506 15.6506 17.4024 15.6506 19.5634C15.6506 21.7243 17.4024 23.4761 19.5634 23.4761Z" fill="#003865"/>
<path d="M35.2145 23.4761C37.3754 23.4761 39.1272 21.7243 39.1272 19.5634C39.1272 17.4024 37.3754 15.6506 35.2145 15.6506C33.0535 15.6506 31.3018 17.4024 31.3018 19.5634C31.3018 21.7243 33.0535 23.4761 35.2145 23.4761Z" fill="#003865"/>
<path d="M50.8651 23.4761C53.0261 23.4761 54.7778 21.7243 54.7778 19.5634C54.7778 17.4024 53.0261 15.6506 50.8651 15.6506C48.7042 15.6506 46.9524 17.4024 46.9524 19.5634C46.9524 21.7243 48.7042 23.4761 50.8651 23.4761Z" fill="#003865"/>
</svg>
