<svg width="126" height="132" viewBox="0 0 126 132" fill="none" xmlns="http://www.w3.org/2000/svg">
<rect width="126" height="132"/>
<path d="M122.073 0H3.91273C1.75186 0 0 1.75186 0 3.91273V128.087C0 130.248 1.75186 132 3.91273 132H122.073C124.234 132 125.986 130.248 125.986 128.087V3.91273C125.986 1.75186 124.234 0 122.073 0V0ZM118.16 7.82545V20.8681H72.9992C69.021 20.8681 65.1237 22.236 62.0287 24.7164L56.9821 28.7507C54.9263 30.3961 52.3439 31.3021 49.7104 31.3021H7.82545V7.82545H118.16ZM7.82545 124.175V39.1275H49.7104C54.1146 39.1275 58.4337 37.612 61.8701 34.8616L66.9188 30.8255C68.6342 29.4506 70.7935 28.6933 72.999 28.6933H118.16V124.174H7.82545V124.175Z" fill="#003865"/>
<path d="M19.5634 23.4761C21.7243 23.4761 23.4761 21.7243 23.4761 19.5634C23.4761 17.4024 21.7243 15.6506 19.5634 15.6506C17.4024 15.6506 15.6506 17.4024 15.6506 19.5634C15.6506 21.7243 17.4024 23.4761 19.5634 23.4761Z" fill="#003865"/>
<path d="M35.2145 23.4761C37.3754 23.4761 39.1272 21.7243 39.1272 19.5634C39.1272 17.4024 37.3754 15.6506 35.2145 15.6506C33.0535 15.6506 31.3018 17.4024 31.3018 19.5634C31.3018 21.7243 33.0535 23.4761 35.2145 23.4761Z" fill="#003865"/>
<path d="M50.8651 23.4761C53.0261 23.4761 54.7778 21.7243 54.7778 19.5634C54.7778 17.4024 53.0261 15.6506 50.8651 15.6506C48.7042 15.6506 46.9524 17.4024 46.9524 19.5634C46.9524 21.7243 48.7042 23.4761 50.8651 23.4761Z" fill="#003865"/>
<path fill-rule="evenodd" clip-rule="evenodd" d="M34.9961 90.9897C42.7272 90.9897 48.9945 84.7224 48.9945 76.9913C48.9945 69.2602 42.7272 62.9929 34.9961 62.9929C27.265 62.9929 20.9977 69.2602 20.9977 76.9913C20.9977 84.7224 27.265 90.9897 34.9961 90.9897ZM34.9961 97.9889C46.5928 97.9889 55.9937 88.5879 55.9937 76.9913C55.9937 65.3946 46.5928 55.9937 34.9961 55.9937C23.3995 55.9937 13.9985 65.3946 13.9985 76.9913C13.9985 88.5879 23.3995 97.9889 34.9961 97.9889Z" fill="#003865"/>
<path fill-rule="evenodd" clip-rule="evenodd" d="M76.9913 62.9929H69.9921V69.9921H76.9913V62.9929ZM62.9929 55.9937V76.9913H83.9905V55.9937H62.9929Z" fill="#003865"/>
<path fill-rule="evenodd" clip-rule="evenodd" d="M76.9913 90.9897H69.9921V97.9889H76.9913V90.9897ZM62.9929 83.9905V104.988H83.9905V83.9905H62.9929Z" fill="#003865"/>
<path fill-rule="evenodd" clip-rule="evenodd" d="M104.988 62.9929H97.9889V69.9921H104.988V62.9929ZM90.9897 55.9937V76.9913H111.987V55.9937H90.9897Z" fill="#003865"/>
<path fill-rule="evenodd" clip-rule="evenodd" d="M104.988 90.9897H97.9889V97.9889H104.988V90.9897ZM90.9897 83.9905V104.988H111.987V83.9905H90.9897Z" fill="#003865"/>
</svg>
