<svg width="126" height="132" viewBox="0 0 126 132" fill="none" xmlns="http://www.w3.org/2000/svg">
    <path d="M122.073 0H3.91273C1.75186 0 0 1.75186 0 3.91273V128.087C0 130.248 1.75186 132 3.91273 132H122.073C124.234 132 125.986 130.248 125.986 128.087V3.91273C125.986 1.75186 124.234 0 122.073 0ZM118.16 7.82545V20.8681H72.9992C69.021 20.8681 65.1237 22.236 62.0287 24.7164L56.9821 28.7507C54.9263 30.3961 52.3439 31.3021 49.7104 31.3021H7.82545V7.82545H118.16ZM7.82545 124.175V39.1275H49.7104C54.1146 39.1275 58.4337 37.612 61.8701 34.8616L66.9188 30.8255C68.6342 29.4506 70.7935 28.6933 72.999 28.6933H118.16V124.174H7.82545V124.175Z" fill="#003865"/>
    <path d="M19.5634 23.4761C21.7243 23.4761 23.4761 21.7243 23.4761 19.5634C23.4761 17.4024 21.7243 15.6506 19.5634 15.6506C17.4024 15.6506 15.6506 17.4024 15.6506 19.5634C15.6506 21.7243 17.4024 23.4761 19.5634 23.4761Z" fill="#003865"/>
    <path d="M35.2145 23.4761C37.3754 23.4761 39.1272 21.7243 39.1272 19.5634C39.1272 17.4024 37.3754 15.6506 35.2145 15.6506C33.0535 15.6506 31.3018 17.4024 31.3018 19.5634C31.3018 21.7243 33.0535 23.4761 35.2145 23.4761Z" fill="#003865"/>
    <path d="M50.8651 23.4761C53.0261 23.4761 54.7778 21.7243 54.7778 19.5634C54.7778 17.4024 53.0261 15.6506 50.8651 15.6506C48.7042 15.6506 46.9524 17.4024 46.9524 19.5634C46.9524 21.7243 48.7042 23.4761 50.8651 23.4761Z" fill="#003865"/>
    <rect x="26.5" y="54.5" width="71" height="53" rx="4.5" stroke="#003865" stroke-width="7"/>
    <line x1="23" y1="81.5" x2="101" y2="81.5" stroke="#003865" stroke-width="7"/>
    <line x1="61.5" y1="111" x2="61.5" y2="51" stroke="#003865" stroke-width="7"/>
</svg>
